<svg width="40" height="40" viewBox="0 0 40 40" fill="none" xmlns="http://www.w3.org/2000/svg">
<rect width="40" height="40" rx="20" fill="white" fill-opacity="0.15"/>
<path fill-rule="evenodd" clip-rule="evenodd" d="M13.214 10.5H26.786C27.2795 10.5 27.7053 10.5 28.0577 10.5254C28.4287 10.5521 28.7999 10.6109 29.1666 10.7712C29.9935 11.1328 30.6506 11.8263 30.9931 12.6992C31.145 13.0862 31.2007 13.478 31.226 13.8697C31.25 14.2417 31.25 14.6911 31.25 15.212V24.788C31.25 25.3089 31.25 25.7583 31.226 26.1303C31.2007 26.522 31.145 26.9138 30.9931 27.3008C30.6506 28.1737 29.9935 28.8672 29.1666 29.2288C28.7999 29.3891 28.4287 29.4479 28.0577 29.4746C27.7053 29.5 27.2795 29.5 26.786 29.5H13.214C12.7205 29.5 12.2947 29.5 11.9423 29.4746C11.5713 29.4479 11.2001 29.3891 10.8334 29.2288C10.0065 28.8672 9.34945 28.1737 9.00691 27.3008C8.85503 26.9138 8.79934 26.522 8.77402 26.1303C8.74997 25.7583 8.74999 25.3089 8.75 24.788V15.212C8.74999 14.6911 8.74997 14.2417 8.77402 13.8697C8.79934 13.478 8.85503 13.0862 9.00691 12.6992C9.34945 11.8263 10.0065 11.1328 10.8334 10.7712C11.2001 10.6109 11.5713 10.5521 11.9423 10.5254C12.2947 10.5 12.7205 10.5 13.214 10.5ZM12.1242 15.7258C12.2756 15.5618 12.5313 15.5517 12.6953 15.7031L19.7258 22.1966C19.8806 22.3396 20.1194 22.3396 20.2742 22.1966L27.3048 15.7031C27.4687 15.5517 27.7244 15.5618 27.8758 15.7258C28.0273 15.8898 28.0171 16.1454 27.8532 16.2969L20.8226 22.7904C20.3581 23.2194 19.6419 23.2194 19.1774 22.7904L12.1469 16.2969C11.9829 16.1454 11.9727 15.8898 12.1242 15.7258Z" fill="white"/>
</svg>
