<svg width="40" height="40" viewBox="0 0 40 40" fill="none" xmlns="http://www.w3.org/2000/svg">
<rect width="40" height="40" rx="20" fill="white" fill-opacity="0.15"/>
<path fill-rule="evenodd" clip-rule="evenodd" d="M10.6338 12.782C10.8232 11.3831 12.0576 10.5 13.3405 10.5H15.7806C17.0073 10.5 18.0964 11.285 18.4843 12.4488L19.4813 15.4397C19.9098 16.7252 19.1532 18.1034 17.8386 18.4321C17.5171 18.5125 17.4063 18.9128 17.6406 19.147L20.853 22.3594C21.0872 22.5937 21.4875 22.4829 21.5679 22.1614C21.8966 20.8468 23.2748 20.0902 24.5603 20.5187L27.5512 21.5157C28.715 21.9036 29.5 22.9927 29.5 24.2194V26.6595C29.5 27.9424 28.6169 29.1768 27.218 29.3662C26.5658 29.4545 25.9005 29.5 25.225 29.5C17.0926 29.5 10.5 22.9074 10.5 14.775C10.5 14.0995 10.5455 13.4342 10.6338 12.782Z" fill="white"/>
</svg>
